# xmcd CD database file
#
# Track frame offsets:
#	150
#	21299
#	41414
#	58966
#	74359
#	94073
#	108893
#	129991
#	144930
#	164382
#	182890
#	207064
#	235255
#
# Disc length: 3364 seconds
#
# Revision: 0
# Processed by: cddbd v1.5.1PL2 Copyright (c) Steve Scherf et al.
# Submitted via: CDex 1.51
#
DISCID=b10d220d
DTITLE=Qypthone - Qypthone Early Complete[disc2]
DYEAR=2005
DGENRE=Pop
TTITLE0=Cosmic Hour
TTITLE1=You'll Be More Than A Friend
TTITLE2=Something Valuable In Me
TTITLE3=La Ragezza Di Trieste
TTITLE4=Cutie Q
TTITLE5=Run Run,Run
TTITLE6=Girl 100
TTITLE7=Mr. "C"
TTITLE8=Chez Nice
TTITLE9=Birthday Party
TTITLE10=フルカラーのあさってに歌おう
TTITLE11=Drive Music
TTITLE12=Awakening(fat albert remix)
EXTD=YEAR: 2005
EXTT0=
EXTT1=
EXTT2=
EXTT3=
EXTT4=
EXTT5=
EXTT6=
EXTT7=
EXTT8=
EXTT9=
EXTT10=
EXTT11=
EXTT12=
PLAYORDER=
